<svg width="32" height="32" viewBox="0 0 32 32" fill="none" xmlns="http://www.w3.org/2000/svg">
<g filter="url(#filter0_b_2435_23555)">
<path d="M20.3702 24.5C19.7494 24.5 19.2211 24.2825 18.7852 23.8475C18.3493 23.4127 18.1314 22.8846 18.1314 22.2632C18.1314 22.1442 18.1417 22.0209 18.1622 21.8934C18.183 21.7659 18.214 21.6459 18.2553 21.5335L11.328 17.4522C11.1088 17.6988 10.8541 17.8913 10.5639 18.0295C10.2737 18.1677 9.96287 18.2368 9.63137 18.2368C9.00998 18.2368 8.48186 18.0196 8.04702 17.585C7.61203 17.1505 7.39453 16.6228 7.39453 16.002C7.39453 15.3812 7.61203 14.8529 8.04702 14.417C8.48186 13.9811 9.00998 13.7632 9.63137 13.7632C9.96287 13.7632 10.2737 13.8323 10.5639 13.9705C10.8541 14.1088 11.1088 14.3012 11.328 14.5478L18.2553 10.4665C18.214 10.3541 18.183 10.2341 18.1622 10.1066C18.1417 9.97909 18.1314 9.85584 18.1314 9.73684C18.1314 9.11545 18.3486 8.58733 18.7832 8.15249C19.2177 7.7175 19.7454 7.5 20.3662 7.5C20.987 7.5 21.5153 7.71727 21.9512 8.15182C22.3871 8.58636 22.6051 9.11403 22.6051 9.73483C22.6051 10.3556 22.3876 10.884 21.9526 11.3199C21.5177 11.7557 20.9896 11.9737 20.3682 11.9737C20.0367 11.9737 19.7259 11.9046 19.4357 11.7663C19.1455 11.6281 18.8908 11.4356 18.6716 11.189L11.7443 15.2703C11.7856 15.3828 11.8166 15.5024 11.8373 15.6291C11.8579 15.7557 11.8682 15.8782 11.8682 15.9964C11.8682 16.1147 11.8579 16.2383 11.8373 16.3673C11.8166 16.4964 11.7856 16.6172 11.7443 16.7297L18.6716 20.811C18.8908 20.5643 19.1455 20.3719 19.4357 20.2337C19.7259 20.0954 20.0367 20.0263 20.3682 20.0263C20.9896 20.0263 21.5177 20.2436 21.9526 20.6781C22.3876 21.1127 22.6051 21.6403 22.6051 22.2611C22.6051 22.8819 22.3878 23.4103 21.9532 23.8462C21.5187 24.2821 20.991 24.5 20.3702 24.5Z" fill="white"/>
</g>
<defs>
<filter id="filter0_b_2435_23555" x="-10" y="-10" width="52" height="52" filterUnits="userSpaceOnUse" color-interpolation-filters="sRGB">
<feFlood flood-opacity="0" result="BackgroundImageFix"/>
<feGaussianBlur in="BackgroundImageFix" stdDeviation="5"/>
<feComposite in2="SourceAlpha" operator="in" result="effect1_backgroundBlur_2435_23555"/>
<feBlend mode="normal" in="SourceGraphic" in2="effect1_backgroundBlur_2435_23555" result="shape"/>
</filter>
</defs>
</svg>
