<svg width="221" height="85" viewBox="0 0 221 85" fill="none" xmlns="http://www.w3.org/2000/svg">
<path d="M11.5982 69.9364L8.04737 69.2224C6.13684 68.8171 5.17193 67.6592 5.17193 66.1347C5.17193 64.3013 6.90877 62.6803 9.41754 62.6803C12.7175 62.6803 14.0105 64.8803 14.2421 66.3856L17.986 65.2277C17.4263 62.5452 15.1684 59.0908 9.35965 59.0908C4.76667 59.0908 0.98421 62.4101 0.98421 66.4627C0.98421 70.0522 3.49298 72.4645 7.23684 73.2171L10.7105 73.9312C12.8333 74.375 14.0105 75.6294 14.0105 77.1926C14.0105 79.0645 12.486 80.5119 9.53333 80.5119C5.98246 80.5119 4.14912 78.1961 3.89825 75.6873L0 76.768C0.385965 80.2224 3.2614 84.1592 9.51404 84.1592C15.1491 84.1592 18.2368 80.5891 18.2368 76.8645C18.2368 73.468 15.9018 70.7856 11.5596 69.9364H11.5982Z" fill="white"/>
<path d="M33.4055 78.3323L26.5353 59.5938H22.0195L31.1862 83.6587H35.4318L44.7336 59.5938H40.3143L33.4055 78.3323Z" fill="white"/>
<path d="M50.1177 83.6587H65.344V79.8569H54.2861V73.4692H64.3019V69.7639H54.2861V63.3955H65.344V59.5938H50.1177V83.6587Z" fill="white"/>
<path d="M85.9736 77.9464L77.9842 59.5938H72.4263V83.6587H76.4982V66.0008L84.1017 83.6587H87.7105L95.3912 65.9429V83.6587H99.521V59.5938H93.8666L85.9736 77.9464Z" fill="white"/>
<path d="M107.53 83.6587H122.737V79.8569H111.699V73.4692H121.695V69.7639H111.699V63.3955H122.737V59.5938H107.53V83.6587Z" fill="white"/>
<path d="M139.623 69.9364L136.072 69.2224C134.162 68.8171 133.197 67.6592 133.197 66.1347C133.197 64.3013 134.934 62.6803 137.442 62.6803C140.742 62.6803 142.035 64.8803 142.267 66.3856L146.011 65.2277C145.451 62.5452 143.193 59.0908 137.385 59.0908C132.792 59.0908 129.009 62.4101 129.009 66.4627C129.009 70.0522 131.518 72.4645 135.262 73.2171L138.735 73.9312C140.858 74.375 142.035 75.6294 142.035 77.1926C142.035 79.0645 140.511 80.5119 137.558 80.5119C134.007 80.5119 132.174 78.1961 131.923 75.6873L128.025 76.768C128.411 80.2224 131.286 84.1592 137.539 84.1592C143.174 84.1592 146.262 80.5891 146.262 76.8645C146.262 73.468 143.927 70.7856 139.585 69.9364H139.623Z" fill="white"/>
<path d="M150.122 63.4148H158.111V83.6587H162.279V63.4148H170.308V59.5938H150.122V63.4148Z" fill="white"/>
<path d="M192.964 66.8885C192.964 62.8166 190.011 59.5938 185.244 59.5938H175.788V83.6587H179.995V74.1446H183.044L188.216 83.6587H192.944L187.386 73.7394C190.821 72.9288 192.944 70.3043 192.944 66.8885H192.964ZM184.492 70.5552H180.014V63.1832H184.492C187.058 63.1832 188.737 64.6499 188.737 66.8885C188.737 69.1271 187.078 70.5552 184.492 70.5552Z" fill="white"/>
<path d="M210.853 59.5938H206.607L197.306 83.6587H201.706L208.634 64.9201L215.504 83.6587H220.02L210.853 59.5938Z" fill="white"/>
<path d="M117.526 28.0217C117.526 23.8725 114.168 20.5146 110.019 20.5146C105.87 20.5146 102.512 23.8725 102.512 28.0217C102.512 32.1708 105.87 35.5287 110.019 35.5287C114.168 35.5287 117.526 32.1708 117.526 28.0217Z" fill="white"/>
<path d="M98.8457 28.0218C98.8457 27.713 98.8457 27.3849 98.8843 27.0762H81.979V29.2762H98.9229C98.865 28.8709 98.8457 28.4464 98.8457 28.0218Z" fill="white"/>
<path d="M138.08 29.2569V27.0762H121.174C121.194 27.3849 121.213 27.713 121.213 28.0218C121.213 28.4463 121.194 28.8516 121.136 29.2569H138.08Z" fill="white"/>
<path d="M118.627 20.8808L130.572 8.91593L129.028 7.37207L117.063 19.337C117.642 19.7808 118.183 20.3019 118.627 20.8808Z" fill="white"/>
<path d="M90.9526 7.37207L89.4087 8.91593L101.393 20.9194C101.856 20.3405 102.377 19.8194 102.956 19.3756L90.9526 7.37207Z" fill="white"/>
<path d="M111.139 16.886V0H108.939V16.886C109.306 16.8474 109.672 16.8281 110.039 16.8281C110.406 16.8281 110.772 16.8281 111.139 16.886Z" fill="white"/>
</svg>
