<svg width="16" height="16" viewBox="0 0 16 16" fill="none" xmlns="http://www.w3.org/2000/svg">
<path d="M11.1717 9.81715C10.9802 9.12296 10.5662 8.51076 9.99327 8.07449C9.42035 7.63821 8.72012 7.40195 7.99999 7.40195C7.27987 7.40195 6.57964 7.63821 6.00671 8.07449C5.43379 8.51076 5.01983 9.12296 4.82833 9.81715L4.37198 11.4714C4.29004 11.7685 4.27782 12.0804 4.33626 12.3829C4.3947 12.6855 4.52223 12.9704 4.7089 13.2155C4.89556 13.4607 5.13633 13.6594 5.41242 13.7962C5.68851 13.933 5.99247 14.0041 6.30059 14.0041H9.6994C10.0075 14.0041 10.3115 13.933 10.5876 13.7962C10.8637 13.6594 11.1044 13.4607 11.2911 13.2155C11.4778 12.9704 11.6053 12.6855 11.6637 12.3829C11.7222 12.0804 11.7099 11.7685 11.628 11.4714L11.1717 9.81715ZM10.6544 12.7306C10.5429 12.8782 10.3986 12.9979 10.2328 13.08C10.067 13.1621 9.88441 13.2046 9.6994 13.2039H6.30059C6.11571 13.2039 5.93334 13.1612 5.76768 13.0791C5.60202 12.997 5.45756 12.8778 5.34555 12.7307C5.23355 12.5836 5.15703 12.4127 5.12197 12.2311C5.08691 12.0496 5.09424 11.8625 5.14341 11.6842L5.59976 10.03C5.74468 9.50463 6.05796 9.04134 6.49153 8.71117C6.92511 8.38101 7.45502 8.20222 7.99999 8.20222C8.54496 8.20222 9.07488 8.38101 9.50846 8.71117C9.94203 9.04134 10.2553 9.50463 10.4002 10.03L10.8566 11.6842C10.9065 11.8624 10.9142 12.0497 10.8791 12.2313C10.844 12.413 10.7671 12.584 10.6544 12.7307V12.7306ZM5.25159 7.9599C5.32122 7.52475 5.22889 7.05893 4.99151 6.64789C4.75413 6.23686 4.39681 5.92398 3.98525 5.7667C3.54451 5.59837 3.09496 5.62518 2.71899 5.84215C1.97157 6.27369 1.77488 7.33727 2.28062 8.21305C2.51792 8.62409 2.87527 8.93704 3.28683 9.09424C3.46914 9.16529 3.66292 9.20234 3.85859 9.20355C4.10235 9.20443 4.34199 9.14067 4.55309 9.01877C4.92884 8.80177 5.17692 8.42572 5.25159 7.9599ZM4.46133 7.8334C4.42557 8.0567 4.31604 8.23153 4.15291 8.32572C3.98978 8.4199 3.78361 8.4273 3.57229 8.34665C3.33189 8.25484 3.11927 8.06528 2.97357 7.81292C2.69348 7.32776 2.76005 6.74257 3.11912 6.5352C3.20938 6.48398 3.31161 6.45759 3.41539 6.45873C3.51274 6.45974 3.60909 6.47853 3.69969 6.51417C3.94009 6.60603 4.15271 6.79556 4.29841 7.04792C4.4441 7.30028 4.50195 7.5793 4.46133 7.8334ZM5.33827 6.30203C5.62242 6.52918 5.9469 6.64747 6.27503 6.64744C6.37332 6.64741 6.47132 6.63684 6.56735 6.61591C7.4107 6.43257 7.92204 5.47946 7.70722 4.49126C7.60644 4.02746 7.36141 3.62055 7.0173 3.34543C6.6488 3.05084 6.21231 2.93933 5.78822 3.03156C4.94489 3.21487 4.43355 4.16798 4.64835 5.15618C4.74915 5.62 4.99418 6.02691 5.33827 6.30203ZM5.95818 3.81356C5.99706 3.80518 6.03673 3.80099 6.07651 3.80106C6.22526 3.80106 6.37826 3.85925 6.51758 3.97064C6.71857 4.13132 6.86335 4.37662 6.92522 4.66139C7.04426 5.20895 6.80253 5.74595 6.39737 5.83402C6.21328 5.87404 6.01462 5.81832 5.83801 5.6771C5.63702 5.5164 5.49225 5.27109 5.43038 4.98635C5.31131 4.43864 5.55304 3.90164 5.95818 3.81356ZM13.281 5.84215C12.9052 5.62518 12.4554 5.59837 12.0147 5.7667C11.6032 5.92393 11.2458 6.23686 11.0085 6.64789C10.7712 7.05893 10.6789 7.52485 10.7484 7.9599C10.823 8.42572 11.0711 8.80177 11.4469 9.01877C11.658 9.14068 11.8977 9.20445 12.1415 9.20355C12.3371 9.20234 12.5309 9.16529 12.7132 9.09424C13.1248 8.93704 13.4821 8.62409 13.7194 8.21305C14.2251 7.33727 14.0284 6.27369 13.281 5.84215ZM13.0264 7.81292C12.8807 8.06528 12.6681 8.25484 12.4277 8.34665C12.2165 8.42737 12.0103 8.41995 11.8471 8.32572C11.684 8.23148 11.5745 8.0567 11.5387 7.8334C11.498 7.5793 11.5559 7.30038 11.7016 7.04815C11.8473 6.79591 12.0599 6.60625 12.3003 6.5144C12.3909 6.47872 12.4872 6.4599 12.5846 6.45885C12.6884 6.45772 12.7906 6.48411 12.8809 6.53533C13.2399 6.74252 13.3066 7.32764 13.0264 7.81292ZM9.43264 6.61591C9.52867 6.63684 9.62667 6.64741 9.72496 6.64744C10.0531 6.64744 10.3777 6.52918 10.6617 6.30203C11.0058 6.02694 11.2508 5.62 11.3516 5.1562C11.5664 4.168 11.0551 3.21489 10.2118 3.03158C9.7877 2.9394 9.35119 3.05084 8.98269 3.34546C8.63858 3.62055 8.39355 4.02748 8.29277 4.49126C8.07794 5.47946 8.58929 6.43257 9.43264 6.61591ZM9.07477 4.66127C9.13664 4.3765 9.28141 4.13109 9.4824 3.97051C9.62175 3.85913 9.77473 3.80093 9.92347 3.80093C9.96325 3.80086 10.0029 3.80505 10.0418 3.81344C10.4469 3.90152 10.6887 4.43864 10.5697 4.98607C10.5077 5.27084 10.363 5.51625 10.162 5.67685C9.98544 5.81804 9.7869 5.87376 9.60267 5.83377C9.19746 5.74582 8.95573 5.20875 9.07477 4.66127Z" fill="#333A4C"/>
</svg>
