<svg width="34" height="34" viewBox="0 0 34 34" fill="none" xmlns="http://www.w3.org/2000/svg">
<path d="M17 33.5C7.8873 33.5 0.5 26.1127 0.5 17C0.5 7.8873 7.8873 0.5 17 0.5C26.1127 0.5 33.5 7.8873 33.5 17C33.5 26.1127 26.1127 33.5 17 33.5Z" stroke="#8B8F73"/>
<path d="M15.125 24.875H18.125V18.125H20.375L21.125 15.125H18.125V13.625C18.125 13.2272 18.283 12.8456 18.5643 12.5643C18.8456 12.283 19.2272 12.125 19.625 12.125H21.125V9.125H18.125C17.3294 9.125 16.5663 9.44107 16.0037 10.0037C15.4411 10.5663 15.125 11.3294 15.125 12.125V15.125H12.875V18.125H15.125V24.875Z" stroke="#8B8F73" stroke-linecap="round" stroke-linejoin="round"/>
</svg>
