<svg width="48" height="48" viewBox="0 0 48 48" fill="none" xmlns="http://www.w3.org/2000/svg">
<rect x="0.5" y="0.5" width="47" height="47" rx="23.5" stroke="black" stroke-opacity="0.5"/>
<path fill-rule="evenodd" clip-rule="evenodd" d="M16.5332 14C16.5482 14 16.5632 14 16.5783 14L31.4663 14C31.9948 14 32.458 14 32.8215 14.0326C33.1702 14.064 33.6488 14.1376 34.0366 14.4578C34.5182 14.8554 34.7864 15.4553 34.7616 16.0794C34.7416 16.5818 34.4774 16.9876 34.2682 17.2684C34.0502 17.561 33.7413 17.9062 33.3889 18.3L27.6526 24.7112C27.5718 24.8015 27.5318 24.8465 27.504 24.8804C27.5033 24.8813 27.5026 24.8821 27.502 24.8829C27.5019 24.884 27.5019 24.885 27.5018 24.8862C27.5 24.9299 27.4997 24.9902 27.4997 25.1113V30.4584C27.4997 30.4693 27.4999 30.4821 27.5 30.4964C27.5015 30.6339 27.5045 30.9193 27.4051 31.1858C27.3215 31.4099 27.1855 31.6108 27.0085 31.7716C26.798 31.9629 26.5319 32.0661 26.4037 32.1158C26.3903 32.121 26.3784 32.1256 26.3683 32.1296L22.9404 33.5008C22.7815 33.5644 22.6058 33.6347 22.4509 33.681C22.2842 33.7307 22.0104 33.7957 21.6946 33.7301C21.3075 33.6497 20.9679 33.4197 20.7495 33.0903C20.5713 32.8214 20.53 32.543 20.5142 32.3698C20.4996 32.2088 20.4997 32.0196 20.4997 31.8484L20.4997 25.1113C20.4997 24.9901 20.4995 24.9299 20.4977 24.8862C20.4976 24.885 20.4976 24.884 20.4975 24.8829C20.4969 24.8821 20.4962 24.8813 20.4955 24.8804C20.4677 24.8465 20.4277 24.8015 20.3469 24.7112L14.6407 18.3337C14.6306 18.3224 14.6206 18.3112 14.6106 18.3001C14.2582 17.9062 13.9493 17.561 13.7313 17.2684C13.5221 16.9876 13.2579 16.5818 13.2379 16.0794C13.2131 15.4553 13.4813 14.8554 13.9629 14.4578C14.3507 14.1376 14.8293 14.064 15.178 14.0326C15.5415 14 16.0047 14 16.5332 14ZM15.3034 16.03C15.313 16.0434 15.3235 16.058 15.3352 16.0736C15.4927 16.2851 15.7397 16.5626 16.1311 17.0001L21.8374 23.3776C21.8476 23.389 21.8581 23.4007 21.8689 23.4127C21.9864 23.5434 22.1344 23.708 22.2443 23.9041C22.3397 24.0742 22.4096 24.2573 22.452 24.4476C22.5008 24.667 22.5003 24.8884 22.4998 25.0642C22.4998 25.0803 22.4997 25.096 22.4997 25.1113V31.523L25.4997 30.323V25.1113C25.4997 25.096 25.4997 25.0803 25.4997 25.0642C25.4992 24.8884 25.4987 24.667 25.5475 24.4476C25.5899 24.2573 25.6598 24.0742 25.7552 23.9041C25.8651 23.708 26.0131 23.5434 26.1306 23.4127C26.1414 23.4007 26.1519 23.389 26.1621 23.3776L31.8684 17.0001C32.2598 16.5626 32.5068 16.2851 32.6643 16.0736C32.676 16.058 32.6865 16.0434 32.6961 16.03C32.6797 16.0282 32.6618 16.0263 32.6424 16.0246C32.3797 16.001 32.0083 16 31.4212 16H16.5783C15.9912 16 15.6198 16.001 15.3571 16.0246C15.3377 16.0263 15.3198 16.0282 15.3034 16.03Z" fill="black"/>
</svg>
