<svg width="16" height="16" viewBox="0 0 16 16" fill="none" xmlns="http://www.w3.org/2000/svg">
<g clip-path="url(#clip0_3624_12186)">
<path d="M14.6666 11.2529C14.6666 11.1062 14.6266 10.9929 14.54 10.9129C14.46 10.8329 14.34 10.7995 14.2 10.8062C14.1866 10.8062 14.1733 10.8062 14.1533 10.8062C14.1533 10.8062 14.1533 10.8062 14.1466 10.8062C14.1466 10.5329 14.1466 10.2529 14.1466 9.97953C14.1466 9.73953 14.1466 9.49287 14.1466 9.25287C14.1466 9.09953 14.1 8.9662 14.0133 8.85286C12.64 7.1262 11.2733 5.39953 9.89998 3.6662L8.37331 1.73953C8.29331 1.63953 8.17331 1.51953 8.00664 1.51953C7.81998 1.51953 7.69331 1.67953 7.64664 1.73286L5.68664 4.19286C4.45998 5.73953 3.22664 7.2862 1.99998 8.83286C1.89998 8.95953 1.84664 9.09953 1.85331 9.2662C1.85331 9.61953 1.85331 9.97286 1.85331 10.3262V10.7129C1.85331 10.7129 1.85331 10.7729 1.85331 10.7995C1.82664 10.7995 1.79331 10.7995 1.77331 10.7995C1.61998 10.7995 1.51998 10.8395 1.43998 10.9195C1.35998 10.9995 1.31998 11.1062 1.32664 11.2462C1.32664 11.6329 1.32664 12.0129 1.32664 12.3995C1.32664 12.5395 1.36664 12.6462 1.44664 12.7262C1.52664 12.8062 1.63998 12.8395 1.78664 12.8462C1.90664 12.8462 2.02664 12.8462 2.14664 12.8462C2.27331 12.8462 2.39331 12.8462 2.52664 12.8462C2.52664 13.1662 2.52664 13.4929 2.52664 13.8129V14.0262C2.52664 14.3395 2.66664 14.4795 2.97998 14.4795C3.15998 14.4795 3.33331 14.4795 3.51331 14.4795C3.69331 14.4795 3.87331 14.4795 4.05331 14.4795C4.36664 14.4795 4.51331 14.3262 4.51331 14.0129V13.7395C4.51331 13.4395 4.51331 13.1395 4.51331 12.8395C5.40664 12.8395 6.30664 12.8395 7.19998 12.8395H8.00664H8.81998C9.71998 12.8395 10.62 12.8395 11.52 12.8395C11.5133 13.1195 11.52 13.4062 11.52 13.6862V14.0062C11.52 14.3329 11.6666 14.4795 11.9933 14.4795C12.34 14.4795 12.6866 14.4795 13.0333 14.4795C13.3666 14.4795 13.5066 14.3395 13.5066 14.0129V13.7462C13.5066 13.4462 13.5066 13.1529 13.5066 12.8462C13.68 12.8462 13.8533 12.8462 14.0266 12.8462H14.1933C14.4133 12.8462 14.66 12.7929 14.6666 12.3929V11.9795C14.6666 11.7395 14.6666 11.4995 14.6666 11.2595V11.2529ZM3.73331 13.2795V13.4329C3.73331 13.5262 3.73331 13.6129 3.73331 13.7062C3.59998 13.7062 3.45998 13.7062 3.29998 13.7062C3.29998 13.4195 3.29998 13.1262 3.29998 12.8395C3.43998 12.8395 3.58664 12.8395 3.73331 12.8395C3.73331 12.9329 3.73331 13.0262 3.73331 13.1195V13.2795ZM13.8933 12.0729C13.46 12.0729 13.0266 12.0729 12.6 12.0729H12.1266H6.85998C5.27998 12.0729 3.69998 12.0729 2.11998 12.0729C2.12664 11.8862 2.12664 11.7195 2.11998 11.5662C2.89998 11.5662 3.68664 11.5662 4.46664 11.5662H5.22664H6.74664C9.12664 11.5662 11.5133 11.5662 13.9 11.5662C13.8933 11.7395 13.8933 11.9129 13.9 12.0729H13.8933ZM11.4 9.9662C11.3933 10.2329 11.3933 10.4995 11.4 10.8062C10.8733 10.8062 10.34 10.8062 9.81331 10.8062C9.34664 10.8062 8.87998 10.8062 8.41331 10.8062C8.41331 9.1062 8.41331 7.4062 8.41331 5.7062V5.2062C9.07998 6.71286 10.04 8.2062 11.3266 9.7662C11.3866 9.83953 11.4066 9.89287 11.4 9.97287V9.9662ZM11.74 7.21953C12.2733 7.89286 12.8066 8.5662 13.34 9.23287C13.3733 9.27287 13.3866 9.3062 13.3866 9.35953C13.3866 9.83953 13.3866 10.3129 13.3866 10.7995C13.16 10.7995 12.9533 10.7995 12.7466 10.7995C12.54 10.7995 12.36 10.7995 12.18 10.7995C12.18 10.6662 12.18 10.5395 12.18 10.4062C12.18 10.2262 12.18 10.0462 12.18 9.85953C12.18 9.6662 12.1266 9.5062 11.9933 9.35286C10.9 8.0462 10.0533 6.77287 9.38664 5.45287C8.97331 4.6262 8.69998 3.89286 8.54664 3.1862L11.74 7.21286V7.21953ZM4.63998 9.93286C4.63998 9.87953 4.64664 9.8462 4.69998 9.7862C5.95998 8.2662 6.89998 6.8062 7.58664 5.31286C7.60664 5.27286 7.61998 5.23953 7.63331 5.19953C7.63331 7.07287 7.63331 8.93953 7.63331 10.8062C7.14664 10.8062 6.65331 10.8062 6.13998 10.8062C5.62664 10.8062 5.15331 10.8062 4.63998 10.8062C4.63998 10.5462 4.63998 10.2662 4.63998 9.93286ZM3.86664 10.3795C3.86664 10.5195 3.86664 10.6595 3.86664 10.8062C3.66664 10.8062 3.45998 10.8062 3.25331 10.8062C3.04664 10.8062 2.85331 10.8062 2.64664 10.8062C2.64664 10.3062 2.64664 9.8062 2.64664 9.29953C2.64664 9.2862 2.64664 9.2862 2.64664 9.27286C4.25998 7.2462 5.87331 5.21953 7.48664 3.1862C7.44664 3.3862 7.38664 3.5862 7.32664 3.79286C6.97998 4.89953 6.41331 6.0262 5.55331 7.33286C5.06664 8.07286 4.54664 8.7662 4.01331 9.3862C3.90664 9.51286 3.85331 9.6462 3.85998 9.8062C3.85998 9.99287 3.85998 10.1862 3.85998 10.3729L3.86664 10.3795ZM12.3 13.2729V13.1195C12.3 13.0329 12.3 12.9395 12.3 12.8462C12.4333 12.8462 12.5666 12.8462 12.7333 12.8462C12.7333 13.1329 12.7333 13.4195 12.7333 13.7129C12.6533 13.7129 12.58 13.7129 12.5 13.7129C12.4333 13.7129 12.3666 13.7129 12.3 13.7129C12.3 13.6195 12.3 13.5262 12.3 13.4329V13.2729Z" fill="#594E2A"/>
</g>
<defs>
<clipPath id="clip0_3624_12186">
<rect width="16" height="16" fill="white"/>
</clipPath>
</defs>
</svg>
