<svg width="24" height="24" viewBox="0 0 24 24" fill="none" xmlns="http://www.w3.org/2000/svg">
<g clip-path="url(#clip0_3175_22542)">
<path d="M22.0001 16.8803C22.0001 16.6603 21.9401 16.4903 21.8101 16.3703C21.6901 16.2503 21.5101 16.2003 21.3001 16.2103C21.2801 16.2103 21.2601 16.2103 21.2301 16.2103C21.2301 16.2103 21.2301 16.2103 21.2201 16.2103C21.2201 15.8003 21.2201 15.3803 21.2201 14.9703C21.2201 14.6103 21.2201 14.2403 21.2201 13.8803C21.2201 13.6503 21.1501 13.4503 21.0201 13.2803C18.9601 10.6903 16.9101 8.10027 14.8501 5.50027L12.5601 2.61027C12.4401 2.46027 12.2601 2.28027 12.0101 2.28027C11.7301 2.28027 11.5401 2.52027 11.4701 2.60027L8.53009 6.29027C6.69009 8.61027 4.84009 10.9303 3.00009 13.2503C2.85009 13.4403 2.77009 13.6503 2.78009 13.9003C2.78009 14.4303 2.78009 14.9603 2.78009 15.4903V16.0703C2.78009 16.0703 2.78009 16.1603 2.78009 16.2003C2.74009 16.2003 2.69009 16.2003 2.66009 16.2003C2.43009 16.2003 2.28009 16.2603 2.16009 16.3803C2.04009 16.5003 1.98009 16.6603 1.99009 16.8703C1.99009 17.4503 1.99009 18.0203 1.99009 18.6003C1.99009 18.8103 2.05009 18.9703 2.17009 19.0903C2.29009 19.2103 2.46009 19.2603 2.68009 19.2703C2.86009 19.2703 3.04009 19.2703 3.22009 19.2703C3.41009 19.2703 3.59009 19.2703 3.79009 19.2703C3.79009 19.7503 3.79009 20.2403 3.79009 20.7203V21.0403C3.79009 21.5103 4.00009 21.7203 4.47009 21.7203C4.74009 21.7203 5.00009 21.7203 5.27009 21.7203C5.54009 21.7203 5.81009 21.7203 6.08009 21.7203C6.55009 21.7203 6.77009 21.4903 6.77009 21.0203V20.6103C6.77009 20.1603 6.77009 19.7103 6.77009 19.2603C8.11009 19.2603 9.46009 19.2603 10.8001 19.2603H12.0101H13.2301C14.5801 19.2603 15.9301 19.2603 17.2801 19.2603C17.2701 19.6803 17.2801 20.1103 17.2801 20.5303V21.0103C17.2801 21.5003 17.5001 21.7203 17.9901 21.7203C18.5101 21.7203 19.0301 21.7203 19.5501 21.7203C20.0501 21.7203 20.2601 21.5103 20.2601 21.0203V20.6203C20.2601 20.1703 20.2601 19.7303 20.2601 19.2703C20.5201 19.2703 20.7801 19.2703 21.0401 19.2703H21.2901C21.6201 19.2703 21.9901 19.1903 22.0001 18.5903V17.9703C22.0001 17.6103 22.0001 17.2503 22.0001 16.8903V16.8803ZM5.60009 19.9203V20.1503C5.60009 20.2903 5.60009 20.4203 5.60009 20.5603C5.40009 20.5603 5.19009 20.5603 4.95009 20.5603C4.95009 20.1303 4.95009 19.6903 4.95009 19.2603C5.16009 19.2603 5.38009 19.2603 5.60009 19.2603C5.60009 19.4003 5.60009 19.5403 5.60009 19.6803V19.9203ZM20.8401 18.1103C20.1901 18.1103 19.5401 18.1103 18.9001 18.1103H18.1901H10.2901C7.92009 18.1103 5.55009 18.1103 3.18009 18.1103C3.19009 17.8303 3.19009 17.5803 3.18009 17.3503C4.35009 17.3503 5.53009 17.3503 6.70009 17.3503H7.84009H10.1201C13.6901 17.3503 17.2701 17.3503 20.8501 17.3503C20.8401 17.6103 20.8401 17.8703 20.8501 18.1103H20.8401ZM17.1001 14.9503C17.0901 15.3503 17.0901 15.7503 17.1001 16.2103C16.3101 16.2103 15.5101 16.2103 14.7201 16.2103C14.0201 16.2103 13.3201 16.2103 12.6201 16.2103C12.6201 13.6603 12.6201 11.1103 12.6201 8.56027V7.81027C13.6201 10.0703 15.0601 12.3103 16.9901 14.6503C17.0801 14.7603 17.1101 14.8403 17.1001 14.9603V14.9503ZM17.6101 10.8303C18.4101 11.8403 19.2101 12.8503 20.0101 13.8503C20.0601 13.9103 20.0801 13.9603 20.0801 14.0403C20.0801 14.7603 20.0801 15.4703 20.0801 16.2003C19.7401 16.2003 19.4301 16.2003 19.1201 16.2003C18.8101 16.2003 18.5401 16.2003 18.2701 16.2003C18.2701 16.0003 18.2701 15.8103 18.2701 15.6103C18.2701 15.3403 18.2701 15.0703 18.2701 14.7903C18.2701 14.5003 18.1901 14.2603 17.9901 14.0303C16.3501 12.0703 15.0801 10.1603 14.0801 8.18027C13.4601 6.94027 13.0501 5.84027 12.8201 4.78027L17.6101 10.8203V10.8303ZM6.96009 14.9003C6.96009 14.8203 6.97009 14.7703 7.05009 14.6803C8.94009 12.4003 10.3501 10.2103 11.3801 7.97027C11.4101 7.91027 11.4301 7.86027 11.4501 7.80027C11.4501 10.6103 11.4501 13.4103 11.4501 16.2103C10.7201 16.2103 9.98009 16.2103 9.21009 16.2103C8.44009 16.2103 7.73009 16.2103 6.96009 16.2103C6.96009 15.8203 6.96009 15.4003 6.96009 14.9003ZM5.80009 15.5703C5.80009 15.7803 5.80009 15.9903 5.80009 16.2103C5.50009 16.2103 5.19009 16.2103 4.88009 16.2103C4.57009 16.2103 4.28009 16.2103 3.97009 16.2103C3.97009 15.4603 3.97009 14.7103 3.97009 13.9503C3.97009 13.9303 3.97009 13.9303 3.97009 13.9103C6.39009 10.8703 8.81009 7.83027 11.2301 4.78027C11.1701 5.08027 11.0801 5.38027 10.9901 5.69027C10.4701 7.35027 9.62009 9.04027 8.33009 11.0003C7.60009 12.1103 6.82009 13.1503 6.02009 14.0803C5.86009 14.2703 5.78009 14.4703 5.79009 14.7103C5.79009 14.9903 5.79009 15.2803 5.79009 15.5603L5.80009 15.5703ZM18.4501 19.9103V19.6803C18.4501 19.5503 18.4501 19.4103 18.4501 19.2703C18.6501 19.2703 18.8501 19.2703 19.1001 19.2703C19.1001 19.7003 19.1001 20.1303 19.1001 20.5703C18.9801 20.5703 18.8701 20.5703 18.7501 20.5703C18.6501 20.5703 18.5501 20.5703 18.4501 20.5703C18.4501 20.4303 18.4501 20.2903 18.4501 20.1503V19.9103Z" fill="#485C55" fill-opacity="0.55"/>
</g>
<defs>
<clipPath id="clip0_3175_22542">
<rect width="24" height="24" fill="white"/>
</clipPath>
</defs>
</svg>
