<svg width="44" height="44" viewBox="0 0 44 44" fill="none" xmlns="http://www.w3.org/2000/svg">
<g clip-path="url(#clip0_1189_1204)">
<path d="M27.025 11C24.937 11 22.933 11.9711 21.625 13.5057C20.317 11.9711 18.313 11 16.225 11C12.529 11 9.625 13.9014 9.625 17.594C9.625 22.1259 13.705 25.8185 19.885 31.4294L21.625 33L23.365 31.4174C29.545 25.8185 33.625 22.1259 33.625 17.594C33.625 13.9014 30.721 11 27.025 11ZM21.745 29.643L21.625 29.7629L21.505 29.643C15.793 24.4757 12.025 21.0589 12.025 17.594C12.025 15.1962 13.825 13.3978 16.225 13.3978C18.073 13.3978 19.873 14.5847 20.509 16.2272H22.753C23.377 14.5847 25.177 13.3978 27.025 13.3978C29.425 13.3978 31.225 15.1962 31.225 17.594C31.225 21.0589 27.457 24.4757 21.745 29.643Z" fill="black"/>
</g>
<defs>
<clipPath id="clip0_1189_1204">
<rect width="44" height="44" fill="white"/>
</clipPath>
</defs>
</svg>
