<svg width="34" height="34" viewBox="0 0 34 34" fill="none" xmlns="http://www.w3.org/2000/svg">
<path d="M17 33.5C7.8873 33.5 0.5 26.1127 0.5 17C0.5 7.8873 7.8873 0.5 17 0.5C26.1127 0.5 33.5 7.8873 33.5 17C33.5 26.1127 26.1127 33.5 17 33.5Z" stroke="#8B8F73"/>
<g clip-path="url(#clip0_2410_8590)">
<path d="M21.5 12.875C21.4005 12.875 21.3052 12.8355 21.2348 12.7652C21.1645 12.6948 21.125 12.5995 21.125 12.5C21.125 12.4005 21.1645 12.3052 21.2348 12.2348C21.3052 12.1645 21.4005 12.125 21.5 12.125" stroke="#8B8F73" stroke-linejoin="round"/>
<path d="M21.5 12.875C21.5995 12.875 21.6948 12.8355 21.7652 12.7652C21.8355 12.6948 21.875 12.5995 21.875 12.5C21.875 12.4005 21.8355 12.3052 21.7652 12.2348C21.6948 12.1645 21.5995 12.125 21.5 12.125" stroke="#8B8F73" stroke-linejoin="round"/>
<path d="M13.25 17C13.25 17.9946 13.6451 18.9484 14.3483 19.6517C15.0516 20.3549 16.0054 20.75 17 20.75C17.9946 20.75 18.9484 20.3549 19.6517 19.6517C20.3549 18.9484 20.75 17.9946 20.75 17C20.75 16.0054 20.3549 15.0516 19.6517 14.3483C18.9484 13.6451 17.9946 13.25 17 13.25C16.0054 13.25 15.0516 13.6451 14.3483 14.3483C13.6451 15.0516 13.25 16.0054 13.25 17Z" stroke="#8B8F73" stroke-linejoin="round"/>
<path d="M20.375 9.125H13.625C12.4315 9.125 11.2869 9.59911 10.443 10.443C9.59911 11.2869 9.125 12.4315 9.125 13.625V20.375C9.125 21.5685 9.59911 22.7131 10.443 23.557C11.2869 24.4009 12.4315 24.875 13.625 24.875H20.375C21.5685 24.875 22.7131 24.4009 23.557 23.557C24.4009 22.7131 24.875 21.5685 24.875 20.375V13.625C24.875 12.4315 24.4009 11.2869 23.557 10.443C22.7131 9.59911 21.5685 9.125 20.375 9.125Z" stroke="#8B8F73"/>
</g>
<defs>
<clipPath id="clip0_2410_8590">
<rect width="18" height="18" fill="white" transform="translate(8 8)"/>
</clipPath>
</defs>
</svg>
