<svg width="221" height="85" viewBox="0 0 221 85" fill="none" xmlns="http://www.w3.org/2000/svg">
<path d="M11.5982 69.9369L8.04737 69.2228C6.13684 68.8176 5.17193 67.6597 5.17193 66.1351C5.17193 64.3018 6.90877 62.6807 9.41754 62.6807C12.7175 62.6807 14.0105 64.8807 14.2421 66.386L17.986 65.2281C17.4263 62.5456 15.1684 59.0912 9.35965 59.0912C4.76667 59.0912 0.98421 62.4105 0.98421 66.4632C0.98421 70.0526 3.49298 72.4649 7.23684 73.2176L10.7105 73.9316C12.8333 74.3755 14.0105 75.6298 14.0105 77.193C14.0105 79.0649 12.486 80.5123 9.53333 80.5123C5.98246 80.5123 4.14912 78.1965 3.89825 75.6877L0 76.7684C0.385965 80.2228 3.2614 84.1597 9.51404 84.1597C15.1491 84.1597 18.2368 80.5895 18.2368 76.8649C18.2368 73.4684 15.9018 70.786 11.5596 69.9369H11.5982Z" fill="white"/>
<path d="M33.4055 78.3316L26.5353 59.593H22.0195L31.1862 83.6579H35.4318L44.7336 59.593H40.3143L33.4055 78.3316Z" fill="white"/>
<path d="M50.1177 83.6579H65.344V79.8562H54.2861V73.4685H64.3019V69.7632H54.2861V63.3948H65.344V59.593H50.1177V83.6579Z" fill="white"/>
<path d="M85.9736 77.9457L77.9842 59.593H72.4263V83.6579H76.4982V66L84.1017 83.6579H87.7105L95.3912 65.9421V83.6579H99.521V59.593H93.8666L85.9736 77.9457Z" fill="white"/>
<path d="M107.53 83.6579H122.737V79.8562H111.698V73.4685H121.695V69.7632H111.698V63.3948H122.737V59.593H107.53V83.6579Z" fill="white"/>
<path d="M139.623 69.9369L136.072 69.2228C134.162 68.8176 133.197 67.6597 133.197 66.1351C133.197 64.3018 134.934 62.6807 137.442 62.6807C140.742 62.6807 142.035 64.8807 142.267 66.386L146.011 65.2281C145.451 62.5456 143.193 59.0912 137.385 59.0912C132.792 59.0912 129.009 62.4105 129.009 66.4632C129.009 70.0526 131.518 72.4649 135.262 73.2176L138.735 73.9316C140.858 74.3755 142.035 75.6298 142.035 77.193C142.035 79.0649 140.511 80.5123 137.558 80.5123C134.007 80.5123 132.174 78.1965 131.923 75.6877L128.025 76.7684C128.411 80.2228 131.286 84.1597 137.539 84.1597C143.174 84.1597 146.262 80.5895 146.262 76.8649C146.262 73.4684 143.927 70.786 139.585 69.9369H139.623Z" fill="white"/>
<path d="M150.121 63.4141H158.111V83.6579H162.279V63.4141H170.307V59.593H150.121V63.4141Z" fill="white"/>
<path d="M192.964 66.8878C192.964 62.8158 190.011 59.593 185.244 59.593H175.788V83.6579H179.995V74.1439H183.044L188.216 83.6579H192.944L187.386 73.7386C190.821 72.9281 192.944 70.3035 192.944 66.8878H192.964ZM184.492 70.5544H180.014V63.1825H184.492C187.058 63.1825 188.737 64.6492 188.737 66.8878C188.737 69.1264 187.078 70.5544 184.492 70.5544Z" fill="white"/>
<path d="M210.853 59.593H206.607L197.306 83.6579H201.706L208.634 64.9193L215.504 83.6579H220.02L210.853 59.593Z" fill="white"/>
<path d="M117.526 28.021C117.526 23.8719 114.168 20.514 110.019 20.514C105.87 20.514 102.512 23.8719 102.512 28.021C102.512 32.1701 105.87 35.528 110.019 35.528C114.168 35.528 117.526 32.1701 117.526 28.021Z" fill="white"/>
<path d="M98.8457 28.0211C98.8457 27.7123 98.8457 27.3842 98.8843 27.0754H81.979V29.2754H98.9229C98.865 28.8702 98.8457 28.4456 98.8457 28.0211Z" fill="white"/>
<path d="M138.079 29.2561V27.0754H121.174C121.193 27.3842 121.212 27.7123 121.212 28.0211C121.212 28.4456 121.193 28.8509 121.135 29.2561H138.079Z" fill="white"/>
<path d="M118.627 20.8807L130.572 8.91575L129.028 7.37189L117.063 19.3368C117.642 19.7807 118.183 20.3017 118.627 20.8807Z" fill="white"/>
<path d="M90.9526 7.37189L89.4087 8.91575L101.393 20.9193C101.856 20.3403 102.377 19.8193 102.956 19.3754L90.9526 7.37189Z" fill="white"/>
<path d="M111.139 16.886V0H108.939V16.886C109.306 16.8474 109.672 16.8281 110.039 16.8281C110.406 16.8281 110.772 16.8281 111.139 16.886Z" fill="white"/>
</svg>
