<svg width="16" height="16" viewBox="0 0 16 16" fill="none" xmlns="http://www.w3.org/2000/svg">
<mask id="mask0_3624_12191" style="mask-type:alpha" maskUnits="userSpaceOnUse" x="0" y="0" width="16" height="16">
<rect width="16" height="16" fill="#D9D9D9"/>
</mask>
<g mask="url(#mask0_3624_12191)">
<path d="M1.5 11.7435V10.7307C1.88377 10.7093 2.17522 10.5971 2.37437 10.3941C2.57351 10.1911 2.97094 10.0896 3.56667 10.0896C4.17521 10.0896 4.58867 10.2008 4.80705 10.423C5.02543 10.6452 5.34744 10.7563 5.77308 10.7563C6.21239 10.7563 6.54124 10.6452 6.75962 10.423C6.97799 10.2008 7.39146 10.0896 8 10.0896C8.59487 10.0896 9.00833 10.2008 9.24038 10.423C9.47243 10.6452 9.80127 10.7563 10.2269 10.7563C10.6662 10.7563 10.9917 10.6452 11.2032 10.423C11.4147 10.2008 11.8248 10.0896 12.4333 10.0896C13.0291 10.0896 13.4265 10.1911 13.6256 10.3941C13.8248 10.5971 14.1162 10.7093 14.5 10.7307V11.7435C13.982 11.7178 13.6071 11.6024 13.375 11.3973C13.1429 11.1922 12.8291 11.0896 12.4333 11.0896C12.012 11.0896 11.691 11.2007 11.4705 11.423C11.25 11.6452 10.8355 11.7563 10.2269 11.7563C9.63205 11.7563 9.21859 11.6452 8.98655 11.423C8.75449 11.2007 8.42564 11.0896 8 11.0896C7.56068 11.0896 7.23183 11.2007 7.01345 11.423C6.79508 11.6452 6.38163 11.7563 5.77308 11.7563C5.16454 11.7563 4.75343 11.6452 4.53975 11.423C4.32607 11.2007 4.00171 11.0896 3.56667 11.0896C3.15299 11.0896 2.84017 11.1922 2.6282 11.3973C2.41623 11.6024 2.04016 11.7178 1.5 11.7435ZM1.5 9.15372V8.14092C1.88377 8.11956 2.17522 8.00738 2.37437 7.80439C2.57351 7.6014 2.97094 7.49991 3.56667 7.49991C4.16153 7.49991 4.57157 7.61102 4.79678 7.83324C5.02201 8.05546 5.34744 8.16657 5.77308 8.16657C6.21239 8.16657 6.54124 8.05546 6.75962 7.83324C6.97799 7.61102 7.39146 7.49991 8 7.49991C8.59487 7.49991 9.00662 7.61102 9.23525 7.83324C9.46388 8.05546 9.78761 8.16657 10.2064 8.16657C10.6457 8.16657 10.9746 8.05546 11.1929 7.83324C11.4113 7.61102 11.8248 7.49991 12.4333 7.49991C13.0154 7.49991 13.4128 7.6014 13.6256 7.80439C13.8385 8.00738 14.1299 8.11956 14.5 8.14092V9.15372C13.9684 9.12808 13.59 9.01269 13.3647 8.80757C13.1395 8.60244 12.8291 8.49987 12.4333 8.49987C12.012 8.49987 11.691 8.61098 11.4705 8.83321C11.25 9.05543 10.8355 9.16654 10.2269 9.16654C9.63205 9.16654 9.21859 9.05543 8.98655 8.83321C8.75449 8.61098 8.42564 8.49987 8 8.49987C7.56068 8.49987 7.23525 8.61098 7.02372 8.83321C6.81217 9.05543 6.40213 9.16654 5.79358 9.16654C5.18504 9.16654 4.76709 9.05543 4.53975 8.83321C4.31239 8.61098 3.98803 8.49987 3.56667 8.49987C3.16667 8.49987 2.85384 8.60244 2.6282 8.80757C2.40257 9.01269 2.02649 9.12808 1.5 9.15372ZM1.5 6.56399V5.55119C1.88377 5.52982 2.17522 5.41764 2.37437 5.21466C2.57351 5.01166 2.97094 4.91016 3.56667 4.91016C4.16153 4.91016 4.57157 5.02127 4.79678 5.24349C5.02201 5.46571 5.34744 5.57682 5.77308 5.57682C6.21239 5.57682 6.54124 5.46571 6.75962 5.24349C6.97799 5.02127 7.39146 4.91016 8 4.91016C8.59487 4.91016 9.00662 5.02127 9.23525 5.24349C9.46388 5.46571 9.78761 5.57682 10.2064 5.57682C10.6457 5.57682 10.9746 5.46571 11.1929 5.24349C11.4113 5.02127 11.8248 4.91016 12.4333 4.91016C13.0154 4.91016 13.4128 5.01166 13.6256 5.21466C13.8385 5.41764 14.1299 5.52982 14.5 5.55119V6.56399C13.9684 6.53834 13.59 6.42296 13.3647 6.21782C13.1395 6.0127 12.8291 5.91014 12.4333 5.91014C12.012 5.91014 11.691 6.02125 11.4705 6.24347C11.25 6.46569 10.8355 6.57681 10.2269 6.57681C9.63205 6.57681 9.21859 6.46569 8.98655 6.24347C8.75449 6.02125 8.42564 5.91014 8 5.91014C7.56068 5.91014 7.23525 6.02125 7.02372 6.24347C6.81217 6.46569 6.40213 6.57681 5.79358 6.57681C5.18504 6.57681 4.76709 6.46569 4.53975 6.24347C4.31239 6.02125 3.98803 5.91014 3.56667 5.91014C3.16667 5.91014 2.85171 6.0127 2.6218 6.21782C2.39188 6.42296 2.01793 6.53834 1.5 6.56399Z" fill="#70735B"/>
</g>
</svg>
