<svg width="24" height="24" viewBox="0 0 24 24" fill="none" xmlns="http://www.w3.org/2000/svg">
<mask id="mask0_3175_22556" style="mask-type:alpha" maskUnits="userSpaceOnUse" x="0" y="0" width="24" height="24">
<rect width="24" height="24" fill="#D9D9D9"/>
</mask>
<g mask="url(#mask0_3175_22556)">
<path d="M2.25 17.6152V16.096C2.82565 16.0639 3.26283 15.8957 3.56155 15.5912C3.86027 15.2867 4.45642 15.1345 5.35 15.1345C6.26282 15.1345 6.88301 15.3011 7.21058 15.6345C7.53814 15.9678 8.02116 16.1345 8.65963 16.1345C9.31859 16.1345 9.81186 15.9678 10.1394 15.6345C10.467 15.3011 11.0872 15.1345 12 15.1345C12.8923 15.1345 13.5125 15.3011 13.8606 15.6345C14.2086 15.9678 14.7019 16.1345 15.3404 16.1345C15.9994 16.1345 16.4875 15.9678 16.8048 15.6345C17.1221 15.3011 17.7372 15.1345 18.65 15.1345C19.5436 15.1345 20.1397 15.2867 20.4385 15.5912C20.7372 15.8957 21.1743 16.0639 21.75 16.096V17.6152C20.9731 17.5767 20.4106 17.4036 20.0625 17.096C19.7144 16.7883 19.2436 16.6344 18.65 16.6344C18.0179 16.6344 17.5365 16.8011 17.2058 17.1344C16.875 17.4678 16.2532 17.6344 15.3404 17.6344C14.4481 17.6344 13.8279 17.4678 13.4798 17.1344C13.1317 16.8011 12.6385 16.6344 12 16.6344C11.341 16.6344 10.8477 16.8011 10.5202 17.1344C10.1926 17.4678 9.57244 17.6344 8.65963 17.6344C7.74681 17.6344 7.13014 17.4678 6.80963 17.1344C6.48911 16.8011 6.00257 16.6344 5.35 16.6344C4.72948 16.6344 4.26025 16.7883 3.9423 17.096C3.62435 17.4036 3.06023 17.5767 2.25 17.6152ZM2.25 13.7306V12.2114C2.82565 12.1793 3.26283 12.0111 3.56155 11.7066C3.86027 11.4021 4.45642 11.2499 5.35 11.2499C6.2423 11.2499 6.85736 11.4165 7.19518 11.7499C7.53301 12.0832 8.02116 12.2499 8.65963 12.2499C9.31859 12.2499 9.81186 12.0832 10.1394 11.7499C10.467 11.4165 11.0872 11.2499 12 11.2499C12.8923 11.2499 13.5099 11.4165 13.8529 11.7499C14.1958 12.0832 14.6814 12.2499 15.3096 12.2499C15.9686 12.2499 16.4619 12.0832 16.7894 11.7499C17.117 11.4165 17.7372 11.2499 18.65 11.2499C19.5231 11.2499 20.1192 11.4021 20.4385 11.7066C20.7577 12.0111 21.1949 12.1793 21.75 12.2114V13.7306C20.9526 13.6921 20.3849 13.519 20.0471 13.2114C19.7093 12.9037 19.2436 12.7498 18.65 12.7498C18.0179 12.7498 17.5365 12.9165 17.2058 13.2498C16.875 13.5831 16.2532 13.7498 15.3404 13.7498C14.4481 13.7498 13.8279 13.5831 13.4798 13.2498C13.1317 12.9165 12.6385 12.7498 12 12.7498C11.341 12.7498 10.8529 12.9165 10.5356 13.2498C10.2183 13.5831 9.60319 13.7498 8.69037 13.7498C7.77756 13.7498 7.15064 13.5831 6.80963 13.2498C6.46859 12.9165 5.98205 12.7498 5.35 12.7498C4.75 12.7498 4.28077 12.9037 3.9423 13.2114C3.60385 13.519 3.03973 13.6921 2.25 13.7306ZM2.25 9.84598V8.32678C2.82565 8.29473 3.26283 8.12647 3.56155 7.82198C3.86027 7.51748 4.45642 7.36523 5.35 7.36523C6.2423 7.36523 6.85736 7.5319 7.19518 7.86523C7.53301 8.19857 8.02116 8.36523 8.65963 8.36523C9.31859 8.36523 9.81186 8.19857 10.1394 7.86523C10.467 7.5319 11.0872 7.36523 12 7.36523C12.8923 7.36523 13.5099 7.5319 13.8529 7.86523C14.1958 8.19857 14.6814 8.36523 15.3096 8.36523C15.9686 8.36523 16.4619 8.19857 16.7894 7.86523C17.117 7.5319 17.7372 7.36523 18.65 7.36523C19.5231 7.36523 20.1192 7.51748 20.4385 7.82198C20.7577 8.12647 21.1949 8.29473 21.75 8.32678V9.84598C20.9526 9.80752 20.3849 9.63443 20.0471 9.32673C19.7093 9.01905 19.2436 8.86521 18.65 8.86521C18.0179 8.86521 17.5365 9.03188 17.2058 9.36521C16.875 9.69854 16.2532 9.86521 15.3404 9.86521C14.4481 9.86521 13.8279 9.69854 13.4798 9.36521C13.1317 9.03188 12.6385 8.86521 12 8.86521C11.341 8.86521 10.8529 9.03188 10.5356 9.36521C10.2183 9.69854 9.60319 9.86521 8.69037 9.86521C7.77756 9.86521 7.15064 9.69854 6.80963 9.36521C6.46859 9.03188 5.98205 8.86521 5.35 8.86521C4.75 8.86521 4.27757 9.01905 3.9327 9.32673C3.58782 9.63443 3.0269 9.80752 2.25 9.84598Z" fill="#485C55" fill-opacity="0.55"/>
</g>
</svg>
