<svg width="20" height="20" viewBox="0 0 20 20" fill="none" xmlns="http://www.w3.org/2000/svg">
<mask id="mask0_2571_16563" style="mask-type:alpha" maskUnits="userSpaceOnUse" x="0" y="0" width="20" height="20">
<rect width="20" height="20" fill="#D9D9D9"/>
</mask>
<g mask="url(#mask0_2571_16563)">
<path d="M9.99854 18.0766C9.58396 18.0766 9.22951 17.9291 8.93521 17.6341C8.64076 17.3391 8.49354 16.9844 8.49354 16.5701H11.5065C11.5065 16.9858 11.3588 17.3408 11.0635 17.6351C10.7683 17.9294 10.4133 18.0766 9.99854 18.0766ZM3.75 15.7368V14.487H5.25646V8.26884C5.25646 7.14815 5.60236 6.15724 6.29417 5.29613C6.98583 4.43502 7.87389 3.88426 8.95833 3.64384V3.12467C8.95833 2.83537 9.05951 2.5894 9.26188 2.38676C9.46424 2.18426 9.70993 2.08301 9.99896 2.08301C10.2881 2.08301 10.5342 2.18426 10.7371 2.38676C10.9401 2.5894 11.0417 2.83537 11.0417 3.12467V3.29134C10.9049 3.53815 10.7964 3.78919 10.7163 4.04447C10.6361 4.29988 10.587 4.56488 10.569 4.83947C10.4741 4.82238 10.3816 4.80738 10.2915 4.79447C10.2015 4.78169 10.1043 4.7753 10 4.7753C9.03528 4.7753 8.21181 5.11641 7.52958 5.79863C6.8475 6.48072 6.50646 7.30412 6.50646 8.26884V14.487H13.4935V9.27697C13.6848 9.3453 13.8867 9.3987 14.0994 9.43717C14.312 9.47565 14.5267 9.49224 14.7435 9.48697V14.487H16.25V15.7368H3.75ZM14.5681 7.66801C13.9319 7.66801 13.3908 7.4453 12.9448 6.99988C12.4987 6.55447 12.2756 6.01356 12.2756 5.37717C12.2756 4.74092 12.4983 4.19974 12.9438 3.75363C13.3892 3.30766 13.93 3.08467 14.5663 3.08467C15.2026 3.08467 15.7438 3.30738 16.1898 3.7528C16.6359 4.19822 16.859 4.73905 16.859 5.3753C16.859 6.01169 16.6363 6.55287 16.1908 6.99884C15.7454 7.44495 15.2045 7.66801 14.5681 7.66801Z" fill="#1C1B1F"/>
<circle cx="14.5833" cy="5.41667" r="2.91667" fill="#F27405"/>
</g>
</svg>
