<svg width="24" height="24" viewBox="0 0 24 24" fill="none" xmlns="http://www.w3.org/2000/svg">
<g id="Icon/24x24/page_info">
<mask id="mask0_3168_6762" style="mask-type:alpha" maskUnits="userSpaceOnUse" x="0" y="0" width="24" height="24">
<rect id="Bounding box" width="24" height="24" fill="#D9D9D9"/>
</mask>
<g mask="url(#mask0_3168_6762)">
<path id="page_info" d="M17.6538 19.6543C16.7169 19.6543 15.925 19.3308 15.2781 18.6839C14.6312 18.037 14.3077 17.2451 14.3077 16.3082C14.3077 15.3712 14.6312 14.5793 15.2781 13.9324C15.925 13.2855 16.7169 12.962 17.6538 12.962C18.5907 12.962 19.3826 13.2855 20.0296 13.9324C20.6765 14.5793 21 15.3712 21 16.3082C21 17.2451 20.6765 18.037 20.0296 18.6839C19.3826 19.3308 18.5907 19.6543 17.6538 19.6543ZM17.6529 18.1543C18.1625 18.1543 18.5977 17.9742 18.9586 17.6139C19.3195 17.2537 19.5 16.8187 19.5 16.3091C19.5 15.7995 19.3199 15.3643 18.9596 15.0034C18.5994 14.6425 18.1644 14.462 17.6548 14.462C17.1452 14.462 16.7099 14.6421 16.349 15.0024C15.9881 15.3626 15.8077 15.7976 15.8077 16.3072C15.8077 16.8168 15.9878 17.2521 16.348 17.613C16.7083 17.9739 17.1432 18.1543 17.6529 18.1543ZM4.5 17.0581V15.5582H12.1154V17.0581H4.5ZM6.34613 11.0389C5.40923 11.0389 4.61731 10.7155 3.97037 10.0686C3.32346 9.42164 3 8.62972 3 7.6928C3 6.75589 3.32346 5.96397 3.97037 5.31705C4.61731 4.67014 5.40923 4.34668 6.34613 4.34668C7.28304 4.34668 8.07496 4.67014 8.72188 5.31705C9.36879 5.96397 9.69225 6.75589 9.69225 7.6928C9.69225 8.62972 9.36879 9.42164 8.72188 10.0686C8.07496 10.7155 7.28304 11.0389 6.34613 11.0389ZM6.34518 9.53895C6.85479 9.53895 7.29005 9.35883 7.65095 8.99858C8.01185 8.63833 8.1923 8.2034 8.1923 7.69378C8.1923 7.18415 8.01218 6.74888 7.65193 6.38798C7.29168 6.02708 6.85673 5.84663 6.3471 5.84663C5.83748 5.84663 5.40223 6.02676 5.04133 6.38703C4.68043 6.74728 4.49998 7.18221 4.49998 7.69183C4.49998 8.20145 4.6801 8.6367 5.04035 8.9976C5.4006 9.3585 5.83554 9.53895 6.34518 9.53895ZM11.8846 8.44278V6.94283H19.5V8.44278H11.8846Z" fill="#FAFAFA"/>
</g>
</g>
</svg>
