<svg width="16" height="16" viewBox="0 0 16 16" fill="none" xmlns="http://www.w3.org/2000/svg">
<mask id="mask0_3624_12197" style="mask-type:alpha" maskUnits="userSpaceOnUse" x="0" y="0" width="16" height="16">
<rect width="16" height="16" fill="#D9D9D9"/>
</mask>
<g mask="url(#mask0_3624_12197)">
<path d="M10.5643 8.46183L7.92577 5.90933C7.60699 5.60166 7.33882 5.25916 7.12127 4.88183C6.90371 4.50449 6.79493 4.09355 6.79493 3.64899C6.79493 3.09844 6.98765 2.63049 7.3731 2.24516C7.75843 1.85971 8.22638 1.66699 8.77693 1.66699C9.13682 1.66699 9.4691 1.75377 9.77376 1.92733C10.0785 2.10077 10.342 2.32171 10.5643 2.59016C10.7865 2.32171 11.0499 2.10077 11.3546 1.92733C11.6593 1.75377 11.9915 1.66699 12.3514 1.66699C12.902 1.66699 13.3699 1.85971 13.7553 2.24516C14.1407 2.63049 14.3334 3.09844 14.3334 3.64899C14.3334 4.09355 14.2264 4.50449 14.0123 4.88183C13.7982 5.25916 13.5317 5.60166 13.2129 5.90933L10.5643 8.46183ZM10.5643 7.06966L12.4706 5.22216C12.6945 5.00249 12.8943 4.7636 13.0699 4.50549C13.2456 4.24738 13.3334 3.96188 13.3334 3.64899C13.3334 3.37466 13.2383 3.14244 13.0481 2.95233C12.858 2.7621 12.6258 2.66699 12.3514 2.66699C12.1403 2.66699 11.9472 2.7221 11.7719 2.83233C11.5967 2.94266 11.442 3.08244 11.3078 3.25166L10.5643 4.15666L9.8206 3.25166C9.68638 3.08244 9.53165 2.94266 9.35643 2.83233C9.18132 2.7221 8.98815 2.66699 8.77693 2.66699C8.5026 2.66699 8.27038 2.7621 8.08027 2.95233C7.89004 3.14244 7.79493 3.37466 7.79493 3.64899C7.79493 3.96188 7.88277 4.24738 8.05843 4.50549C8.2341 4.7636 8.43388 5.00249 8.65777 5.22216L10.5643 7.06966ZM4.4681 12.385L9.30643 13.7542L13.2859 12.5208C13.2518 12.3696 13.1813 12.2536 13.0744 12.1728C12.9675 12.092 12.8466 12.0517 12.7116 12.0517H9.44676C9.15588 12.0517 8.90871 12.0405 8.70527 12.0183C8.50182 11.9961 8.29282 11.9474 8.07827 11.8722L6.57327 11.3747L6.86927 10.3952L8.21927 10.8645C8.42104 10.9328 8.65399 10.9794 8.9181 11.0042C9.18221 11.0289 9.55782 11.0448 10.0449 11.0517C10.0449 10.8867 10.0078 10.7443 9.93343 10.6247C9.8591 10.505 9.76121 10.4242 9.63976 10.3823L5.77193 8.96183C5.75904 8.9576 5.74727 8.95444 5.7366 8.95233C5.72593 8.9501 5.71421 8.94899 5.70143 8.94899H4.4681V12.385ZM1.13477 14.3337V7.94916H5.69377C5.76377 7.94916 5.83465 7.95683 5.90643 7.97216C5.97832 7.9876 6.04499 8.00555 6.10643 8.02599L9.9911 9.45683C10.2937 9.56871 10.5449 9.76677 10.7449 10.051C10.9449 10.3352 11.0449 10.6688 11.0449 11.0517H12.7116C13.1903 11.0517 13.5802 11.2062 13.8814 11.5152C14.1828 11.824 14.3334 12.2251 14.3334 12.7183V13.2567L9.33977 14.808L4.4681 13.4183V14.3337H1.13477ZM2.13477 13.3337H3.4681V8.94899H2.13477V13.3337Z" fill="#485C55"/>
</g>
</svg>
