<svg width="24" height="24" viewBox="0 0 24 24" fill="none" xmlns="http://www.w3.org/2000/svg">
<mask id="mask0_3175_22559" style="mask-type:alpha" maskUnits="userSpaceOnUse" x="0" y="0" width="24" height="24">
<rect width="24" height="24" fill="#D9D9D9"/>
</mask>
<g mask="url(#mask0_3175_22559)">
<path d="M15.8462 12.6923L11.8884 8.8635C11.4102 8.402 11.008 7.88825 10.6817 7.32225C10.3553 6.75625 10.1922 6.13983 10.1922 5.473C10.1922 4.64717 10.4812 3.94525 11.0594 3.36725C11.6374 2.78908 12.3393 2.5 13.1652 2.5C13.705 2.5 14.2034 2.63017 14.6604 2.8905C15.1176 3.15067 15.5128 3.48208 15.8462 3.88475C16.1795 3.48208 16.5747 3.15067 17.0317 2.8905C17.4887 2.63017 17.9871 2.5 18.5269 2.5C19.3527 2.5 20.0547 2.78908 20.6327 3.36725C21.2108 3.94525 21.4999 4.64717 21.4999 5.473C21.4999 6.13983 21.3393 6.75625 21.0182 7.32225C20.697 7.88825 20.2973 8.402 19.8192 8.8635L15.8462 12.6923ZM15.8462 10.604L18.7057 7.83275C19.0415 7.50325 19.3412 7.14492 19.6047 6.75775C19.8682 6.37058 19.9999 5.94233 19.9999 5.473C19.9999 5.0615 19.8572 4.71317 19.5719 4.428C19.2867 4.14267 18.9384 4 18.5269 4C18.2102 4 17.9205 4.08267 17.6577 4.248C17.3948 4.4135 17.1627 4.62317 16.9614 4.877L15.8462 6.2345L14.7307 4.877C14.5293 4.62317 14.2972 4.4135 14.0344 4.248C13.7717 4.08267 13.482 4 13.1652 4C12.7537 4 12.4053 4.14267 12.1202 4.428C11.8348 4.71317 11.6922 5.0615 11.6922 5.473C11.6922 5.94233 11.8239 6.37058 12.0874 6.75775C12.3509 7.14492 12.6506 7.50325 12.9864 7.83275L15.8462 10.604ZM6.7019 18.577L13.9594 20.6308L19.9287 18.7808C19.8775 18.5539 19.7717 18.3799 19.6114 18.2587C19.4511 18.1376 19.2697 18.077 19.0672 18.077H14.1699C13.7336 18.077 13.3628 18.0603 13.0577 18.027C12.7525 17.9937 12.439 17.9206 12.1172 17.8077L9.85965 17.0615L10.3037 15.5922L12.3287 16.2962C12.6313 16.3987 12.9807 16.4686 13.3769 16.5057C13.7731 16.5429 14.3365 16.5667 15.0672 16.577C15.0672 16.3295 15.0114 16.116 14.8999 15.9365C14.7884 15.757 14.6416 15.6358 14.4594 15.573L8.65765 13.4423C8.63832 13.4359 8.62065 13.4312 8.60465 13.428C8.58865 13.4247 8.57107 13.423 8.5519 13.423H6.7019V18.577ZM1.7019 21.5V11.9233H8.5404C8.6454 11.9233 8.75174 11.9348 8.8594 11.9578C8.96724 11.9809 9.06724 12.0078 9.1594 12.0385L14.9864 14.1848C15.4402 14.3526 15.8172 14.6497 16.1172 15.076C16.4172 15.5023 16.5672 16.0027 16.5672 16.577H19.0672C19.7852 16.577 20.3701 16.8088 20.8219 17.2723C21.2739 17.7356 21.4999 18.3372 21.4999 19.077V19.8845L14.0094 22.2115L6.7019 20.127V21.5H1.7019ZM3.2019 20H5.2019V13.423H3.2019V20Z" fill="#485C55" fill-opacity="0.55"/>
</g>
</svg>
