<svg width="28" height="28" viewBox="0 0 28 28" fill="none" xmlns="http://www.w3.org/2000/svg">
<mask id="mask0_2024_11077" style="mask-type:alpha" maskUnits="userSpaceOnUse" x="0" y="0" width="28" height="28">
<rect width="28" height="28" fill="#D9D9D9"/>
</mask>
<g mask="url(#mask0_2024_11077)">
<path d="M12.8889 20.6667C15.037 20.6667 16.8704 19.9085 18.3889 18.3922C19.9074 16.8757 20.6667 15.0413 20.6667 12.8889C20.6667 10.7407 19.9074 8.90741 18.3889 7.38889C16.8704 5.87037 15.037 5.11111 12.8889 5.11111C10.7365 5.11111 8.90204 5.87037 7.38556 7.38889C5.86926 8.90741 5.11111 10.7407 5.11111 12.8889C5.11111 15.0413 5.86926 16.8757 7.38556 18.3922C8.90204 19.9085 10.7365 20.6667 12.8889 20.6667ZM12.8889 21.7778C11.6567 21.7778 10.5018 21.5459 9.42417 21.0822C8.34657 20.6185 7.405 19.9839 6.59944 19.1783C5.79389 18.3728 5.15926 17.4312 4.69556 16.3536C4.23185 15.276 4 14.1211 4 12.8889C4 11.6609 4.23185 10.5081 4.69556 9.43056C5.15926 8.35296 5.79389 7.41028 6.59944 6.6025C7.405 5.79491 8.34657 5.15926 9.42417 4.69555C10.5018 4.23185 11.6567 4 12.8889 4C14.1169 4 15.2696 4.23185 16.3472 4.69555C17.4248 5.15926 18.3675 5.79491 19.1753 6.6025C19.9829 7.41028 20.6185 8.35296 21.0822 9.43056C21.5459 10.5081 21.7778 11.6609 21.7778 12.8889C21.7778 14.017 21.5798 15.0805 21.1839 16.0792C20.7878 17.0777 20.24 17.9765 19.5406 18.7756L24 23.235L23.2286 24L18.7692 19.5469C17.9701 20.2464 17.0713 20.7931 16.0728 21.1869C15.0741 21.5808 14.0128 21.7778 12.8889 21.7778Z" fill="#1C1B1F"/>
</g>
</svg>
